<mxfile host="app.diagrams.net" agent="Mozilla/5.0 (Windows NT 10.0; Win64; x64) AppleWebKit/537.36 (KHTML, like Gecko) Chrome/136.0.0.0 Safari/537.36 Edg/136.0.0.0" version="27.0.6">
  <diagram name="Page-1" id="TkY6HiqLDyC5K5wM1Uph">
    <mxGraphModel dx="1630" dy="902" grid="1" gridSize="10" guides="1" tooltips="1" connect="1" arrows="1" fold="1" page="1" pageScale="1" pageWidth="850" pageHeight="1100" math="0" shadow="0">
      <root>
        <mxCell id="0" />
        <mxCell id="1" parent="0" />
        <mxCell id="zBtiyNsggP_mH4e-scdV-1" value="Sơ đồ tuần tự chức năng quản lý lịch dạy trực tuyến" style="swimlane;whiteSpace=wrap;html=1;startSize=23;fontSize=14;" parent="1" vertex="1">
          <mxGeometry x="460" y="270" width="1210" height="610" as="geometry" />
        </mxCell>
        <mxCell id="zBtiyNsggP_mH4e-scdV-2" value="" style="shape=umlLifeline;perimeter=lifelinePerimeter;whiteSpace=wrap;html=1;container=1;dropTarget=0;collapsible=0;recursiveResize=0;outlineConnect=0;portConstraint=eastwest;newEdgeStyle={&quot;curved&quot;:0,&quot;rounded&quot;:0};participant=umlActor;" parent="zBtiyNsggP_mH4e-scdV-1" vertex="1">
          <mxGeometry x="110" y="50" width="30" height="560" as="geometry" />
        </mxCell>
        <mxCell id="zBtiyNsggP_mH4e-scdV-3" value="Giao diện" style="shape=umlLifeline;perimeter=lifelinePerimeter;whiteSpace=wrap;html=1;container=1;dropTarget=0;collapsible=0;recursiveResize=0;outlineConnect=0;portConstraint=eastwest;newEdgeStyle={&quot;curved&quot;:0,&quot;rounded&quot;:0};" parent="zBtiyNsggP_mH4e-scdV-1" vertex="1">
          <mxGeometry x="310" y="50" width="90" height="560" as="geometry" />
        </mxCell>
        <mxCell id="zBtiyNsggP_mH4e-scdV-4" value="" style="html=1;points=[[0,0,0,0,5],[0,1,0,0,-5],[1,0,0,0,5],[1,1,0,0,-5]];perimeter=orthogonalPerimeter;outlineConnect=0;targetShapes=umlLifeline;portConstraint=eastwest;newEdgeStyle={&quot;curved&quot;:0,&quot;rounded&quot;:0};" parent="zBtiyNsggP_mH4e-scdV-3" vertex="1">
          <mxGeometry x="40" y="70" width="10" height="460" as="geometry" />
        </mxCell>
        <mxCell id="zBtiyNsggP_mH4e-scdV-6" value="Web Client" style="shape=umlLifeline;perimeter=lifelinePerimeter;whiteSpace=wrap;html=1;container=1;dropTarget=0;collapsible=0;recursiveResize=0;outlineConnect=0;portConstraint=eastwest;newEdgeStyle={&quot;curved&quot;:0,&quot;rounded&quot;:0};" parent="zBtiyNsggP_mH4e-scdV-1" vertex="1">
          <mxGeometry x="540" y="50" width="90" height="560" as="geometry" />
        </mxCell>
        <mxCell id="zBtiyNsggP_mH4e-scdV-7" value="&lt;span style=&quot;color: rgba(0, 0, 0, 0); font-family: monospace; font-size: 0px; text-align: start;&quot;&gt;%3CmxGraphModel%3E%3Croot%3E%3CmxCell%20id%3D%220%22%2F%3E%3CmxCell%20id%3D%221%22%20parent%3D%220%22%2F%3E%3CmxCell%20id%3D%222%22%20value%3D%22G%E1%BB%8Di%20API%20t%C3%ACm%20ki%E1%BA%BFm%20d%E1%BB%AF%20li%E1%BB%87u%22%20style%3D%22html%3D1%3BverticalAlign%3Dbottom%3BendArrow%3Dblock%3Bcurved%3D0%3Brounded%3D0%3B%22%20edge%3D%221%22%20parent%3D%221%22%3E%3CmxGeometry%20width%3D%2280%22%20relative%3D%221%22%20as%3D%22geometry%22%3E%3CmxPoint%20x%3D%22360%22%20y%3D%22730%22%20as%3D%22sourcePoint%22%2F%3E%3CmxPoint%20x%3D%22580%22%20y%3D%22730%22%20as%3D%22targetPoint%22%2F%3E%3C%2FmxGeometry%3E%3C%2FmxCell%3E%3C%2Froot%3E%3C%2FmxGraphModel%3E&lt;/span&gt;" style="html=1;points=[[0,0,0,0,5],[0,1,0,0,-5],[1,0,0,0,5],[1,1,0,0,-5]];perimeter=orthogonalPerimeter;outlineConnect=0;targetShapes=umlLifeline;portConstraint=eastwest;newEdgeStyle={&quot;curved&quot;:0,&quot;rounded&quot;:0};" parent="zBtiyNsggP_mH4e-scdV-6" vertex="1">
          <mxGeometry x="40" y="80" width="10" height="430" as="geometry" />
        </mxCell>
        <mxCell id="zBtiyNsggP_mH4e-scdV-9" value="Web API" style="shape=umlLifeline;perimeter=lifelinePerimeter;whiteSpace=wrap;html=1;container=1;dropTarget=0;collapsible=0;recursiveResize=0;outlineConnect=0;portConstraint=eastwest;newEdgeStyle={&quot;curved&quot;:0,&quot;rounded&quot;:0};" parent="zBtiyNsggP_mH4e-scdV-1" vertex="1">
          <mxGeometry x="730" y="50" width="90" height="560" as="geometry" />
        </mxCell>
        <mxCell id="zBtiyNsggP_mH4e-scdV-42" style="edgeStyle=orthogonalEdgeStyle;rounded=0;orthogonalLoop=1;jettySize=auto;html=1;curved=0;" parent="zBtiyNsggP_mH4e-scdV-9" source="zBtiyNsggP_mH4e-scdV-10" target="zBtiyNsggP_mH4e-scdV-41" edge="1">
          <mxGeometry relative="1" as="geometry">
            <Array as="points">
              <mxPoint x="80" y="110" />
              <mxPoint x="80" y="150" />
            </Array>
          </mxGeometry>
        </mxCell>
        <mxCell id="zBtiyNsggP_mH4e-scdV-10" value="" style="html=1;points=[[0,0,0,0,5],[0,1,0,0,-5],[1,0,0,0,5],[1,1,0,0,-5]];perimeter=orthogonalPerimeter;outlineConnect=0;targetShapes=umlLifeline;portConstraint=eastwest;newEdgeStyle={&quot;curved&quot;:0,&quot;rounded&quot;:0};" parent="zBtiyNsggP_mH4e-scdV-9" vertex="1">
          <mxGeometry x="40" y="90" width="10" height="400" as="geometry" />
        </mxCell>
        <mxCell id="zBtiyNsggP_mH4e-scdV-41" value="" style="html=1;points=[[0,0,0,0,5],[0,1,0,0,-5],[1,0,0,0,5],[1,1,0,0,-5]];perimeter=orthogonalPerimeter;outlineConnect=0;targetShapes=umlLifeline;portConstraint=eastwest;newEdgeStyle={&quot;curved&quot;:0,&quot;rounded&quot;:0};" parent="zBtiyNsggP_mH4e-scdV-9" vertex="1">
          <mxGeometry x="46" y="130" width="10" height="40" as="geometry" />
        </mxCell>
        <mxCell id="zBtiyNsggP_mH4e-scdV-11" value="Nhập dữ liệu lịch học" style="html=1;verticalAlign=bottom;endArrow=block;curved=0;rounded=0;" parent="zBtiyNsggP_mH4e-scdV-1" edge="1">
          <mxGeometry width="80" relative="1" as="geometry">
            <mxPoint x="130" y="130" as="sourcePoint" />
            <mxPoint x="350" y="130" as="targetPoint" />
          </mxGeometry>
        </mxCell>
        <mxCell id="zBtiyNsggP_mH4e-scdV-12" value="Gửi yêu cầu lịch học" style="html=1;verticalAlign=bottom;endArrow=block;curved=0;rounded=0;" parent="zBtiyNsggP_mH4e-scdV-1" edge="1">
          <mxGeometry width="80" relative="1" as="geometry">
            <mxPoint x="360" y="140" as="sourcePoint" />
            <mxPoint x="580" y="140" as="targetPoint" />
          </mxGeometry>
        </mxCell>
        <mxCell id="zBtiyNsggP_mH4e-scdV-13" value="Google Meet API" style="shape=umlLifeline;perimeter=lifelinePerimeter;whiteSpace=wrap;html=1;container=1;dropTarget=0;collapsible=0;recursiveResize=0;outlineConnect=0;portConstraint=eastwest;newEdgeStyle={&quot;curved&quot;:0,&quot;rounded&quot;:0};" parent="zBtiyNsggP_mH4e-scdV-1" vertex="1">
          <mxGeometry x="910" y="50" width="90" height="560" as="geometry" />
        </mxCell>
        <mxCell id="zBtiyNsggP_mH4e-scdV-22" value="IF[Thời khóa biểu khả dung]" style="text;html=1;align=center;verticalAlign=middle;whiteSpace=wrap;rounded=0;" parent="zBtiyNsggP_mH4e-scdV-1" vertex="1">
          <mxGeometry x="126.5" y="230" width="160" height="50" as="geometry" />
        </mxCell>
        <mxCell id="zBtiyNsggP_mH4e-scdV-39" value="MySQL" style="shape=umlLifeline;perimeter=lifelinePerimeter;whiteSpace=wrap;html=1;container=1;dropTarget=0;collapsible=0;recursiveResize=0;outlineConnect=0;portConstraint=eastwest;newEdgeStyle={&quot;curved&quot;:0,&quot;rounded&quot;:0};" parent="zBtiyNsggP_mH4e-scdV-1" vertex="1">
          <mxGeometry x="1060" y="50" width="90" height="560" as="geometry" />
        </mxCell>
        <mxCell id="zBtiyNsggP_mH4e-scdV-14" value="" style="html=1;points=[[0,0,0,0,5],[0,1,0,0,-5],[1,0,0,0,5],[1,1,0,0,-5]];perimeter=orthogonalPerimeter;outlineConnect=0;targetShapes=umlLifeline;portConstraint=eastwest;newEdgeStyle={&quot;curved&quot;:0,&quot;rounded&quot;:0};" parent="zBtiyNsggP_mH4e-scdV-1" vertex="1">
          <mxGeometry x="950" y="257.5" width="10" height="42.5" as="geometry" />
        </mxCell>
        <mxCell id="zBtiyNsggP_mH4e-scdV-15" value="Ưu cầu tạo liên kết phiên họp" style="html=1;verticalAlign=bottom;endArrow=block;curved=0;rounded=0;" parent="zBtiyNsggP_mH4e-scdV-1" edge="1">
          <mxGeometry width="80" relative="1" as="geometry">
            <mxPoint x="780" y="265" as="sourcePoint" />
            <mxPoint x="950" y="265" as="targetPoint" />
          </mxGeometry>
        </mxCell>
        <mxCell id="zBtiyNsggP_mH4e-scdV-17" value="Kết quả xử lý" style="html=1;verticalAlign=bottom;endArrow=open;dashed=1;endSize=8;curved=0;rounded=0;" parent="zBtiyNsggP_mH4e-scdV-1" edge="1">
          <mxGeometry x="-0.0038" relative="1" as="geometry">
            <mxPoint x="770" y="430" as="sourcePoint" />
            <mxPoint x="590.0000000000002" y="430" as="targetPoint" />
            <mxPoint as="offset" />
          </mxGeometry>
        </mxCell>
        <mxCell id="zBtiyNsggP_mH4e-scdV-18" value="Cập nhật giao diện" style="html=1;verticalAlign=bottom;endArrow=open;dashed=1;endSize=8;curved=0;rounded=0;" parent="zBtiyNsggP_mH4e-scdV-1" edge="1">
          <mxGeometry x="0.0031" relative="1" as="geometry">
            <mxPoint x="580" y="450" as="sourcePoint" />
            <mxPoint x="360" y="450" as="targetPoint" />
            <mxPoint as="offset" />
          </mxGeometry>
        </mxCell>
        <mxCell id="zBtiyNsggP_mH4e-scdV-19" value="Hiển thị giao diện thành công" style="html=1;verticalAlign=bottom;endArrow=open;dashed=1;endSize=8;curved=0;rounded=0;" parent="zBtiyNsggP_mH4e-scdV-1" target="zBtiyNsggP_mH4e-scdV-2" edge="1">
          <mxGeometry x="-0.0015" relative="1" as="geometry">
            <mxPoint x="350" y="470" as="sourcePoint" />
            <mxPoint x="134.67" y="470" as="targetPoint" />
            <mxPoint as="offset" />
          </mxGeometry>
        </mxCell>
        <mxCell id="zBtiyNsggP_mH4e-scdV-20" value="alt" style="shape=umlFrame;whiteSpace=wrap;html=1;pointerEvents=0;" parent="zBtiyNsggP_mH4e-scdV-1" vertex="1">
          <mxGeometry x="60" y="240" width="1120" height="350" as="geometry" />
        </mxCell>
        <mxCell id="zBtiyNsggP_mH4e-scdV-21" value="" style="endArrow=none;dashed=1;html=1;rounded=0;entryX=1;entryY=0.226;entryDx=0;entryDy=0;entryPerimeter=0;exitX=0.001;exitY=0.503;exitDx=0;exitDy=0;exitPerimeter=0;" parent="zBtiyNsggP_mH4e-scdV-1" edge="1">
          <mxGeometry width="50" height="50" relative="1" as="geometry">
            <mxPoint x="59.999999999999915" y="490.6299999999999" as="sourcePoint" />
            <mxPoint x="1175" y="490.0000000000001" as="targetPoint" />
          </mxGeometry>
        </mxCell>
        <mxCell id="zBtiyNsggP_mH4e-scdV-23" value="ELSE[Thời khóa biểu không khả dung]" style="text;html=1;align=center;verticalAlign=middle;whiteSpace=wrap;rounded=0;" parent="zBtiyNsggP_mH4e-scdV-1" vertex="1">
          <mxGeometry x="120" y="490" width="230" height="30" as="geometry" />
        </mxCell>
        <mxCell id="zBtiyNsggP_mH4e-scdV-24" value="Gọi API yêu cầu lịch học" style="html=1;verticalAlign=bottom;endArrow=block;curved=0;rounded=0;" parent="zBtiyNsggP_mH4e-scdV-1" edge="1">
          <mxGeometry width="80" relative="1" as="geometry">
            <mxPoint x="590" y="150" as="sourcePoint" />
            <mxPoint x="770.0000000000002" y="150" as="targetPoint" />
          </mxGeometry>
        </mxCell>
        <mxCell id="zBtiyNsggP_mH4e-scdV-43" value="Kiểm tra lịch trùng" style="text;html=1;align=center;verticalAlign=middle;resizable=0;points=[];autosize=1;strokeColor=none;fillColor=none;" parent="zBtiyNsggP_mH4e-scdV-1" vertex="1">
          <mxGeometry x="800" y="168" width="120" height="30" as="geometry" />
        </mxCell>
        <mxCell id="zBtiyNsggP_mH4e-scdV-44" value="Trả về liên kết, meeting_id" style="html=1;verticalAlign=bottom;endArrow=open;dashed=1;endSize=8;curved=0;rounded=0;" parent="zBtiyNsggP_mH4e-scdV-1" edge="1">
          <mxGeometry x="-0.0038" relative="1" as="geometry">
            <mxPoint x="949.9999999999998" y="289.99999999999994" as="sourcePoint" />
            <mxPoint x="780" y="290.43" as="targetPoint" />
            <mxPoint as="offset" />
          </mxGeometry>
        </mxCell>
        <mxCell id="zBtiyNsggP_mH4e-scdV-45" value="Lưu dữ liệu lịch học vào CSDL" style="html=1;verticalAlign=bottom;endArrow=block;curved=0;rounded=0;" parent="zBtiyNsggP_mH4e-scdV-1" target="zBtiyNsggP_mH4e-scdV-40" edge="1">
          <mxGeometry width="80" relative="1" as="geometry">
            <mxPoint x="780" y="320" as="sourcePoint" />
            <mxPoint x="1104.5" y="320.0000000000001" as="targetPoint" />
          </mxGeometry>
        </mxCell>
        <mxCell id="zBtiyNsggP_mH4e-scdV-46" value="Lưu thành công" style="html=1;verticalAlign=bottom;endArrow=open;dashed=1;endSize=8;curved=0;rounded=0;" parent="zBtiyNsggP_mH4e-scdV-1" edge="1">
          <mxGeometry x="-0.0053" relative="1" as="geometry">
            <mxPoint x="1100" y="340" as="sourcePoint" />
            <mxPoint x="780" y="340" as="targetPoint" />
            <mxPoint as="offset" />
          </mxGeometry>
        </mxCell>
        <mxCell id="zBtiyNsggP_mH4e-scdV-47" value="" style="html=1;points=[[0,0,0,0,5],[0,1,0,0,-5],[1,0,0,0,5],[1,1,0,0,-5]];perimeter=orthogonalPerimeter;outlineConnect=0;targetShapes=umlLifeline;portConstraint=eastwest;newEdgeStyle={&quot;curved&quot;:0,&quot;rounded&quot;:0};" parent="zBtiyNsggP_mH4e-scdV-1" vertex="1">
          <mxGeometry x="775" y="376" width="10" height="40" as="geometry" />
        </mxCell>
        <mxCell id="zBtiyNsggP_mH4e-scdV-48" style="edgeStyle=orthogonalEdgeStyle;rounded=0;orthogonalLoop=1;jettySize=auto;html=1;curved=0;" parent="zBtiyNsggP_mH4e-scdV-1" edge="1">
          <mxGeometry relative="1" as="geometry">
            <mxPoint x="780" y="365" as="sourcePoint" />
            <mxPoint x="785" y="395" as="targetPoint" />
            <Array as="points">
              <mxPoint x="780" y="360" />
              <mxPoint x="800" y="360" />
              <mxPoint x="800" y="395" />
            </Array>
          </mxGeometry>
        </mxCell>
        <mxCell id="zBtiyNsggP_mH4e-scdV-49" value="Gửi mail thông báo &lt;br&gt;lịch học đến sinh viên" style="text;html=1;align=center;verticalAlign=middle;resizable=0;points=[];autosize=1;strokeColor=none;fillColor=none;" parent="zBtiyNsggP_mH4e-scdV-1" vertex="1">
          <mxGeometry x="800" y="361" width="140" height="40" as="geometry" />
        </mxCell>
        <mxCell id="zBtiyNsggP_mH4e-scdV-52" value="Thất bại (trùng lịch)" style="html=1;verticalAlign=bottom;endArrow=open;dashed=1;endSize=8;curved=0;rounded=0;" parent="zBtiyNsggP_mH4e-scdV-1" edge="1">
          <mxGeometry x="-0.0038" relative="1" as="geometry">
            <mxPoint x="769.9999999999998" y="519.26" as="sourcePoint" />
            <mxPoint x="590" y="519.26" as="targetPoint" />
            <mxPoint as="offset" />
          </mxGeometry>
        </mxCell>
        <mxCell id="zBtiyNsggP_mH4e-scdV-53" value="Cập nhật giao diện" style="html=1;verticalAlign=bottom;endArrow=open;dashed=1;endSize=8;curved=0;rounded=0;" parent="zBtiyNsggP_mH4e-scdV-1" edge="1">
          <mxGeometry x="0.0031" relative="1" as="geometry">
            <mxPoint x="580" y="540" as="sourcePoint" />
            <mxPoint x="360" y="540" as="targetPoint" />
            <mxPoint as="offset" />
          </mxGeometry>
        </mxCell>
        <mxCell id="zBtiyNsggP_mH4e-scdV-54" value="Hiển thị giao diện thất bại&amp;nbsp;" style="html=1;verticalAlign=bottom;endArrow=open;dashed=1;endSize=8;curved=0;rounded=0;" parent="zBtiyNsggP_mH4e-scdV-1" edge="1">
          <mxGeometry x="-0.0015" relative="1" as="geometry">
            <mxPoint x="351.5" y="560" as="sourcePoint" />
            <mxPoint x="126.5" y="560" as="targetPoint" />
            <mxPoint as="offset" />
          </mxGeometry>
        </mxCell>
        <mxCell id="zBtiyNsggP_mH4e-scdV-40" value="" style="html=1;points=[[0,0,0,0,5],[0,1,0,0,-5],[1,0,0,0,5],[1,1,0,0,-5]];perimeter=orthogonalPerimeter;outlineConnect=0;targetShapes=umlLifeline;portConstraint=eastwest;newEdgeStyle={&quot;curved&quot;:0,&quot;rounded&quot;:0};" parent="zBtiyNsggP_mH4e-scdV-1" vertex="1">
          <mxGeometry x="1100" y="306" width="10" height="44" as="geometry" />
        </mxCell>
      </root>
    </mxGraphModel>
  </diagram>
</mxfile>
